<?xml version="1.0" standalone="no"?>
<!DOCTYPE svg PUBLIC "-//W3C//DTD SVG 20010904//EN"
 "http://www.w3.org/TR/2001/REC-SVG-20010904/DTD/svg10.dtd">
<svg version="1.0" xmlns="http://www.w3.org/2000/svg"
 width="512" height="512" viewBox="0 0 512 512"
 preserveAspectRatio="xMidYMid meet">

<g transform="translate(0,512) scale(0.1,-0.1)"
fill="#000000" stroke="none">
<path d="M552 4777 l-22 -23 0 -2171 0 -2170 21 -27 20 -26 290 0 c170 0 298
4 309 10 32 17 40 67 40 256 l0 183 203 3 202 3 63 34 c145 79 222 226 222
423 l0 88 105 0 c141 0 145 4 145 138 0 53 -5 117 -11 141 -27 119 -122 240
-226 289 l-58 27 -322 3 -323 3 0 995 0 994 1519 0 1518 0 28 22 27 21 -4 136
c-4 114 -9 148 -30 209 -72 202 -224 353 -427 426 l-86 31 -1591 3 -1590 2
-22 -23z m3229 -154 c132 -45 250 -146 311 -266 29 -59 57 -166 58 -219 l0
-28 -1735 0 -1735 0 0 263 c0 145 3 267 7 271 4 3 687 5 1517 4 l1511 -3 66
-22z m-2731 -2393 l0 -1720 -182 2 -183 3 -3 1718 -2 1717 185 0 185 0 0
-1720z m794 -440 c74 -28 138 -124 152 -228 l7 -52 -397 0 -396 0 0 145 0 145
304 0 c170 0 316 -4 330 -10z m-100 -530 c-1 -75 -6 -106 -24 -147 -27 -63
-93 -127 -146 -142 -22 -6 -112 -11 -201 -11 l-163 0 0 200 0 200 268 -2 267
-3 -1 -95z"/>
<path d="M2990 3650 l-405 -5 -57 -27 c-120 -56 -208 -173 -228 -304 -7 -46
-10 -347 -8 -909 l3 -840 22 -59 c39 -103 131 -198 226 -234 l45 -17 -94 -235
c-51 -129 -107 -266 -123 -305 -85 -199 -131 -334 -122 -357 13 -33 35 -49 70
-50 46 -1 65 23 111 138 l42 104 948 0 948 0 42 -104 c23 -57 50 -112 61 -122
43 -39 120 -6 121 52 0 24 -64 204 -103 289 -5 11 -60 148 -123 305 l-114 285
33 12 c125 44 232 177 255 314 12 80 13 1638 1 1726 -20 134 -101 247 -220
306 l-65 32 -186 2 c-500 7 -707 8 -1080 3z m350 -565 l0 -415 -270 0 -270 0
30 59 30 60 146 3 c139 3 147 4 165 27 24 30 24 72 0 102 -19 23 -25 24 -186
27 -116 2 -177 0 -197 -9 -24 -10 -41 -36 -94 -140 l-64 -129 -90 0 -90 0 0
323 c0 297 2 325 20 362 10 22 25 47 32 55 22 26 81 67 113 78 19 6 163 11
378 11 l347 1 0 -415z m884 403 c55 -16 138 -99 154 -154 8 -29 12 -137 12
-353 l0 -311 -270 0 -270 0 30 60 30 60 131 0 c145 0 184 11 195 57 9 36 -6
75 -36 90 -30 15 -325 18 -363 4 -18 -7 -43 -45 -93 -140 l-69 -131 -87 0 -88
0 0 415 0 415 341 0 c239 0 354 -4 383 -12z m164 -1446 l-3 -479 -30 -49 c-19
-30 -49 -60 -79 -79 l-49 -30 -807 0 -807 0 -49 30 c-30 19 -60 49 -79 79
l-30 49 -3 479 -3 478 971 0 971 0 -3 -478z m-282 -837 c8 -20 23 -58 34 -85
l20 -50 -740 0 -740 0 20 50 c11 27 26 65 34 85 l15 35 671 0 671 0 15 -35z
m159 -397 l43 -108 -888 0 -888 0 35 88 c19 48 39 97 44 110 l9 22 801 -2 801
-3 43 -107z"/>
<path d="M2730 2201 c-78 -24 -157 -99 -178 -169 -39 -130 14 -258 130 -316
95 -47 217 -30 291 42 78 75 102 165 73 266 -38 130 -190 215 -316 177z m141
-180 c74 -74 4 -202 -97 -177 -33 9 -71 47 -80 80 -25 100 103 170 177 97z"/>
<path d="M3956 2194 c-67 -21 -137 -93 -161 -163 -31 -96 -6 -197 67 -270 49
-50 102 -71 179 -71 230 -1 345 272 186 438 -68 71 -174 97 -271 66z m153
-170 c74 -62 27 -184 -71 -184 -40 0 -86 36 -97 76 -28 102 87 176 168 108z"/>
<path d="M3200 2187 c-58 -29 -64 -107 -10 -134 33 -17 418 -18 454 -2 36 17
54 65 35 98 -8 14 -26 31 -39 38 -35 18 -405 18 -440 0z"/>
<path d="M3171 1824 c-28 -35 -26 -69 4 -99 l24 -25 221 0 221 0 24 25 c30 30
32 64 4 99 l-20 26 -229 0 -229 0 -20 -26z"/>
</g>
</svg>
